PathFileType	4	(X/Y/Z)	s07c0301.trc
DataRate	CameraRate	NumFrames	NumMarkers	Units	OrigDataRate	OrigDataStartFrame	OrigNumFrames
200	200	6	48	mm	200	500	2000
Frame#	Time	racr			lacr			c7			jug			rlel			rdr			llel			ldr			s2			lic			ric			lasi			rasi			rpsi			lpsi			rgt			lgt			rth1			rth2			rth3			rth4			rlfc			rmfc			rsh1			rsh2			rsh3			rsh4			rlmal			rcal			rtoe			rmt5			lth1			lth2			lth4			lth3			llfc			lmfc			lsh1			lsh2			lsh3			lsh4			llmal			lcal			ltoe			lmt5			SBIKE			LBIKE			RBIKE			
		X1	Y1	Z1	X2	Y2	Z2	X3	Y3	Z3	X4	Y4	Z4	X5	Y5	Z5	X6	Y6	Z6	X7	Y7	Z7	X8	Y8	Z8	X9	Y9	Z9	X10	Y10	Z10	X11	Y11	Z11	X12	Y12	Z12	X13	Y13	Z13	X14	Y14	Z14	X15	Y15	Z15	X16	Y16	Z16	X17	Y17	Z17	X18	Y18	Z18	X19	Y19	Z19	X20	Y20	Z20	X21	Y21	Z21	X22	Y22	Z22	X23	Y23	Z23	X24	Y24	Z24	X25	Y25	Z25	X26	Y26	Z26	X27	Y27	Z27	X28	Y28	Z28	X29	Y29	Z29	X30	Y30	Z30	X31	Y31	Z31	X32	Y32	Z32	X33	Y33	Z33	X34	Y34	Z34	X35	Y35	Z35	X36	Y36	Z36	X37	Y37	Z37	X38	Y38	Z38	X39	Y39	Z39	X40	Y40	Z40	X41	Y41	Z41	X42	Y42	Z42	X43	Y43	Z43	X44	Y44	Z44	X45	Y45	Z45	X46	Y46	Z46	X47	Y47	Z47	X48	Y48	Z48	
500	2.5000	709.334402	1458.957421	-36.129291	775.922646	1436.982087	-331.245952	732.675828	1500.983492	-187.819830	677.109181	1360.023138	-194.314192	537.383076	1137.836018	3.455416	725.099218	922.773782	-79.285690	610.921900	1163.908342	-506.823292	724.422292	904.453689	-421.136506	166.646850	1307.575388	-351.396078	364.255279	1310.340199	-453.194758	296.505622	1341.288133	-171.897519	368.889016	1230.440847	-416.503140	314.033161	1289.800300	-184.092285	188.436083	1349.096746	-301.690289	226.411799	1338.892845	-404.969588	227.639422	1237.777090	-129.053522	274.083080	1158.109081	-478.775253	334.900479	1133.056693	-97.809366	407.743903	1083.806745	-90.884591	447.137972	1009.740695	-76.952561	434.938893	1105.913747	-103.797941	530.581612	884.969603	-90.341941	532.679227	867.282023	-195.229027	437.367691	777.349646	-68.925721	394.810694	702.081574	-86.979557	320.088574	655.521085	-85.526878	408.459622	693.439979	-124.727256	220.170347	556.976246	-87.845674	141.606397	535.466526	-116.619308	416.541552	442.905235	-128.106703	332.676542	429.839588	-56.667695	297.320898	1039.817741	-467.951629	332.773770	962.508981	-446.757706	361.807091	970.216676	-425.692173	325.831102	873.793077	-438.173754	322.667427	700.863020	-403.721934	295.659284	693.216940	-314.149798	228.267083	584.930423	-428.277258	194.293227	508.453867	-408.185228	124.530815	451.549126	-416.949506	193.585295	513.062757	-365.888742	36.889392	345.575009	-413.753518	-42.300330	357.440057	-379.471542	165.476499	156.638143	-352.989547	99.718662	192.683004	-419.857463	-263.876823	973.725298	-236.741375	-84.063970	79.830392	-437.102019	-83.931748	79.578095	-39.404242	
501	2.5050	709.517286	1454.170748	-36.071708	775.603770	1434.018089	-332.114917	733.584822	1496.805145	-187.618737	676.513103	1356.561451	-195.020544	534.089118	1135.105819	2.187372	724.814657	922.996554	-79.575612	608.724072	1162.582450	-507.725452	724.391000	904.814513	-421.823843	166.343524	1308.058064	-352.502222	363.592733	1311.356206	-453.998302	295.886017	1340.395121	-172.130913	368.321820	1231.210732	-417.347330	313.650685	1289.422190	-184.437952	188.314755	1349.327067	-302.535907	225.929673	1339.419461	-405.598156	226.197525	1237.500524	-130.093034	274.508440	1158.266692	-479.893082	332.479095	1131.507084	-98.279822	404.316516	1080.977490	-92.133352	442.762599	1006.530238	-77.116891	432.209580	1102.943018	-103.750259	525.600438	880.917964	-90.128456	527.986187	863.351853	-194.983064	433.870267	771.153440	-68.942337	392.918970	694.980412	-87.384910	319.308539	646.938990	-86.149874	406.624494	686.392171	-125.420967	221.699191	546.659940	-89.049411	143.676117	522.945655	-118.185317	421.857917	438.762646	-126.321381	337.560055	423.324881	-55.959803	299.929947	1040.427530	-467.380478	337.495079	963.955381	-445.513350	366.108416	972.849332	-425.720862	332.485466	875.265552	-436.563195	331.466820	702.311665	-401.365545	305.250838	695.192371	-311.064629	234.267129	588.323243	-425.704742	198.333158	512.677946	-405.881073	127.144005	457.484404	-414.813310	197.783267	517.069565	-363.589306	37.338409	353.388826	-412.633347	-42.795028	367.878239	-378.781685	159.063559	160.378528	-352.903255	94.328392	198.963549	-419.577861	-263.743640	973.764519	-236.410482	-84.047026	79.911811	-437.070008	-83.923980	79.573578	-39.408206	
502	2.5100	709.429911	1449.569645	-35.848261	775.194619	1431.032412	-333.217783	734.279712	1492.736809	-187.377360	676.014915	1352.984131	-196.145251	530.666699	1132.302885	0.795558	724.425370	923.166592	-79.853013	606.558232	1161.143185	-508.611883	723.863105	904.812781	-421.788485	165.971678	1308.129639	-353.466593	362.831277	1311.924946	-454.625876	295.504467	1339.070927	-172.291920	367.639638	1231.844284	-418.227198	313.484258	1288.546190	-184.490702	188.136609	1349.238021	-303.246213	225.438350	1339.695738	-406.198713	224.922640	1236.764927	-131.049377	274.827778	1158.242424	-480.909646	330.353941	1129.632326	-98.758076	401.513379	1078.103933	-92.336877	438.937793	1003.109853	-77.284163	429.582913	1099.903466	-103.813318	520.450871	876.285274	-89.933435	523.063305	858.810562	-194.847893	430.344100	764.461433	-69.004225	391.126070	687.328430	-87.857177	318.518821	637.820878	-87.031401	405.457324	679.538697	-125.630555	222.962979	536.036220	-90.540465	146.283801	510.113206	-119.112161	426.880159	433.925228	-125.558706	342.487616	416.136124	-55.699327	302.096725	1040.875232	-466.668771	341.692029	965.352217	-444.797763	370.432274	975.133096	-425.776245	338.558743	876.737018	-434.767279	339.616932	703.956666	-399.046341	313.605237	697.129867	-308.190366	240.072133	591.504061	-422.958926	201.534921	516.975866	-403.452217	129.734011	463.492110	-412.934003	201.709553	520.966848	-361.267694	37.703345	361.449480	-411.612738	-43.455689	378.185637	-378.219274	152.837961	164.560837	-352.859586	89.272734	205.567183	-419.310875	-263.612334	973.804483	-236.015648	-84.019576	79.966682	-437.040085	-83.906571	79.535599	-39.362512	
503	2.5150	709.118842	1445.272643	-35.446177	774.996522	1428.081814	-334.542500	734.727454	1488.829733	-187.122772	675.770863	1349.481737	-197.197198	527.137254	1129.495819	-0.770528	723.910930	923.359787	-80.052370	604.516391	1159.757082	-509.454168	723.193787	904.635304	-421.566986	165.601689	1307.819327	-354.348142	362.145714	1312.310052	-455.207199	295.267647	1337.499966	-172.459423	366.981289	1232.060479	-419.157293	313.554778	1287.550639	-184.371847	187.916831	1348.752877	-303.954534	224.823026	1339.612699	-406.617075	223.764779	1235.685199	-131.919056	274.950829	1157.940713	-481.860917	328.539198	1127.368826	-99.080106	398.987388	1075.073699	-92.521512	435.496997	999.543605	-77.242625	427.467766	1096.334373	-104.241113	515.481239	871.086253	-89.856372	518.036618	853.780754	-194.699264	426.795327	757.382800	-69.144658	389.699449	679.125090	-88.118340	317.781788	628.493983	-87.841964	402.634747	671.540721	-126.837233	224.516137	525.333525	-91.043336	148.701043	496.949771	-119.645052	431.732544	429.264648	-125.454572	347.559634	409.193666	-55.615916	303.964850	1041.226825	-466.225359	345.310624	966.633942	-444.277024	374.329556	977.128770	-426.152912	343.881351	878.128353	-432.939195	347.352273	705.621259	-396.431492	321.945503	698.978444	-304.981808	245.757056	594.663018	-420.346206	205.070512	521.237386	-401.239668	132.074011	469.373328	-411.120051	205.562452	524.798241	-359.087813	37.948002	369.260835	-410.787204	-44.257371	388.368219	-377.763638	146.807837	169.264462	-352.753044	84.562110	212.479560	-419.063135	-263.467544	973.855053	-235.666289	-84.009275	80.009723	-437.016167	-83.881783	79.539079	-39.336528	
504	2.5200	708.766336	1441.040860	-35.065846	774.887452	1425.258835	-335.924417	734.979500	1485.132893	-186.978213	675.574636	1346.032623	-198.431827	523.647279	1126.661325	-2.445961	723.355583	923.648400	-80.274888	602.581903	1158.381592	-510.196639	722.504659	904.359654	-421.360896	165.158944	1307.079143	-354.971982	361.377352	1312.285894	-455.885340	295.111540	1335.765754	-172.543258	366.267080	1231.960629	-419.962167	313.576834	1286.523062	-184.144312	187.631128	1347.842307	-304.286477	223.808036	1338.939676	-406.584385	222.772582	1234.244156	-132.649084	274.820689	1157.582673	-482.641797	326.990350	1124.772933	-99.150014	396.901620	1071.646862	-92.605172	432.459480	995.806440	-77.171707	425.429997	1092.568949	-104.572706	510.519154	865.556919	-89.822496	513.025889	848.254763	-194.371192	423.419722	750.314117	-69.379336	387.941806	671.220698	-88.178520	317.101437	619.208980	-88.153196	401.438014	664.105545	-126.836803	226.241491	514.415041	-91.492751	151.100945	484.054604	-120.081723	435.354339	423.180928	-125.084411	352.116073	401.514247	-55.427747	305.397594	1041.318060	-465.880681	348.399980	967.637549	-444.024801	377.766393	978.732039	-426.977199	348.560537	879.298644	-431.158722	354.778163	707.074853	-393.546154	329.666466	700.620288	-301.824248	250.866332	597.890871	-417.690802	208.348541	525.338539	-398.998492	134.076552	475.323519	-409.516489	208.777205	528.767591	-356.880976	37.700285	377.388948	-410.057533	-45.175134	398.431925	-377.394102	141.226194	174.745983	-352.597422	80.205761	219.686410	-418.841161	-263.328871	973.913232	-235.438597	-84.012431	80.048497	-437.004189	-83.873322	79.523930	-39.328287	
505	2.5250	708.478699	1436.856510	-34.766291	774.666631	1422.665667	-337.311250	735.025905	1481.707148	-186.861252	675.563354	1342.612484	-199.699751	520.129222	1123.885342	-4.331224	722.774766	923.972137	-80.563590	600.927369	1157.089676	-510.780079	722.101739	904.130905	-421.397609	164.692460	1306.194702	-355.479557	360.582489	1311.892474	-456.349510	295.007386	1333.733848	-172.497572	365.412164	1231.404548	-420.923501	313.534843	1284.707538	-184.342700	187.229870	1346.771606	-304.502645	223.155070	1338.208284	-406.893443	222.057256	1232.590530	-133.120853	274.500977	1156.983559	-483.496549	325.671874	1121.642686	-99.174921	395.009380	1067.930203	-92.679032	429.830796	991.691618	-77.179440	423.634816	1088.420925	-105.008137	505.652748	859.953441	-89.793429	508.231295	841.195271	-188.619994	420.060848	743.320351	-69.196063	386.174244	663.380422	-87.952578	316.450366	610.105376	-88.049071	410.056741	658.899987	-121.061383	227.693702	503.020024	-91.869901	153.345697	471.287637	-120.286026	439.081776	416.198470	-124.553472	355.835556	392.896220	-55.202972	306.340511	1040.994873	-465.371773	350.903260	968.274701	-443.898346	380.638528	979.956988	-428.124835	352.590446	880.142968	-429.684223	361.648118	708.086771	-390.254647	336.737062	702.226169	-298.554813	255.463657	601.165574	-415.094519	211.084493	529.513583	-396.916825	135.590347	481.502381	-408.016388	212.022017	532.282320	-355.312662	37.020230	385.747329	-409.408271	-46.184032	408.382721	-377.089994	136.072663	180.995283	-352.506008	76.212358	227.172996	-418.651031	-263.224291	973.951701	-235.329834	-84.000332	80.051509	-436.991756	-83.866813	79.519251	-39.315150	
